# This file uses centimeters as units for non-parametric coordinates.

mtllib amph_landscape.mtl
g default
v -0.731988 1.422590 9.000000
v 0.742452 1.422590 0.732980
v -1.564048 2.788630 3.952310
v 0.498402 1.422590 -1.763100
v 3.802202 1.422590 -0.561500
v 9.000002 1.422590 0.000000
v 0.446062 1.422590 -2.501200
v -4.830838 1.422590 -9.000000
v 0.742452 1.422590 0.125280
v -8.999998 1.422590 -1.792700
v -5.160230 1.422590 0.109100
v 4.052202 1.422590 9.000000
v -8.999998 0.850587 9.000000
v -8.999998 0.000000 9.000000
v 9.000000 0.000000 9.000000
v 9.000000 2.592590 9.000000
v 7.397802 2.195890 0.204410
v 7.679901 1.638620 5.149820
v 6.629902 1.606070 2.926870
v 6.472902 2.114390 7.262910
v 9.000002 0.000000 -9.000000
v 9.000002 1.350800 -9.000000
v -8.999998 0.000000 -9.000000
v -8.999998 0.655587 -9.000000
v -7.962200 2.852050 7.172710
v -7.191220 1.942590 2.228800
v -2.362578 1.985300 7.290660
v -5.548738 2.229510 5.660620
v -5.243908 1.985300 3.974890
v -4.599408 2.254320 1.933070
v -7.538758 2.552050 -5.010200
v -5.805868 2.312710 -3.091200
v -4.586048 1.611740 -6.282200
v -3.335558 1.991250 -5.802900
v -1.747338 2.592590 -2.289700
v 4.658802 1.942590 -8.683001
v 6.995102 2.751850 -4.241600
v 5.227002 2.592590 -3.601100
v 1.231602 2.592590 -4.241600
v 5.765302 2.149470 -5.355100
v 0.391182 1.453680 -7.215500
v 1.844302 1.422590 4.035590
v -0.334498 1.422590 9.000000
v 2.449702 2.273410 5.870620
v 2.384002 1.422590 9.000000
v 2.225101 2.579590 0.278940
v 3.117302 2.616300 8.080449
v 4.673002 2.088000 5.504340
v 6.629902 1.606070 2.926870
v 7.679901 1.638620 5.149820
vt 0.240407 0.670967
vt 0.172556 0.746105
vt 0.115327 0.620254
vt 0.278584 0.902325
vt 0.118255 0.917079
vt 0.399318 0.639585
vt 0.288169 0.795910
vt 0.337132 0.777143
vt 0.496806 0.545026
vt 0.156037 0.268566
vt 0.140744 0.111418
vt 0.186164 0.462663
vt 0.375229 0.264467
vt 0.250475 0.328291
vt 0.406495 0.395180
vt 0.287646 0.474243
vt 0.437915 0.125455
vt 0.262411 0.394296
vt 0.496806 0.521232
vt 0.265687 0.545660
vt 0.636952 0.886241
vt 0.785037 0.913326
vt 0.730608 0.721173
vt 0.883990 0.529587
vt 0.682863 0.761820
vt 0.664551 0.694935
vt 0.512870 0.714523
vt 0.485201 0.647866
vt 0.477688 0.825904
vt 0.548689 0.363138
vt 0.618049 0.268026
vt 0.606309 0.488219
vt 0.467504 0.105581
vt 0.518120 0.587247
vt 0.619669 0.169091
vt 0.670390 0.109067
vt 0.645738 0.551902
vt 0.808979 0.496817
vt 0.552708 0.091645
vt 0.705146 0.276675
vt 0.781401 0.203486
vt 0.861250 0.123570
vt 0.830689 0.289774
vt 0.787812 0.380549
vt 0.830689 0.289774
vt 0.787812 0.380549
vt 0.996817 0.156951
vt 0.814358 0.945199
vt 0.106419 0.938392
vt 0.006347 0.187945
vt 0.214152 0.008497
vt 0.701165 0.022396
vn 0.615461 0.780486 0.109769
vn 0.615461 0.780486 0.109769
vn 0.615461 0.780486 0.109769
vn 0.000000 1.000000 0.000000
vn 0.000000 1.000000 0.000000
vn 0.000000 1.000000 0.000000
vn 0.000000 1.000000 0.000000
vn 0.000000 1.000000 0.000000
vn 0.000000 1.000000 0.000000
vn 0.000000 1.000000 0.000000
vn 0.000000 1.000000 0.000000
vn 0.000000 1.000000 0.000000
vn 0.000000 1.000000 0.000000
vn 0.000000 1.000000 0.000000
vn 0.000000 1.000000 0.000000
vn -0.670215 0.725682 0.155556
vn -0.670215 0.725682 0.155556
vn -0.670215 0.725682 0.155556
vn -0.871233 0.486982 0.061661
vn -0.871233 0.486982 0.061661
vn -0.871233 0.486982 0.061661
vn -0.503658 0.835145 -0.221044
vn -0.503658 0.835145 -0.221044
vn -0.503658 0.835145 -0.221044
vn 0.000000 0.964971 0.262358
vn 0.000000 0.964971 0.262358
vn 0.000000 0.964971 0.262358
vn 0.000000 -0.000000 1.000000
vn 0.000000 -0.000000 1.000000
vn 0.000000 -0.000000 1.000000
vn 0.000000 -0.000000 1.000000
vn 0.000000 -0.000000 1.000000
vn 0.000000 -0.000000 1.000000
vn 0.000000 -0.000000 1.000000
vn 0.000000 -0.000000 1.000000
vn 0.849743 0.417793 -0.321538
vn 0.849743 0.417793 -0.321538
vn 0.849743 0.417793 -0.321538
vn -0.788962 0.596911 0.145728
vn -0.788962 0.596911 0.145728
vn -0.788962 0.596911 0.145728
vn 0.000000 0.610257 0.792203
vn 0.000000 0.610257 0.792203
vn 0.000000 0.610257 0.792203
vn 0.114892 0.971909 0.205411
vn 0.114892 0.971909 0.205411
vn 0.114892 0.971909 0.205411
vn 0.091306 0.994527 0.050789
vn 0.091306 0.994527 0.050789
vn 0.091306 0.994527 0.050789
vn 0.074687 0.995480 0.058664
vn 0.074687 0.995480 0.058664
vn 0.074687 0.995480 0.058664
vn 0.034501 0.617717 -0.785644
vn 0.034501 0.617717 -0.785644
vn 0.034501 0.617717 -0.785644
vn 0.224438 0.754197 -0.617102
vn 0.224438 0.754197 -0.617102
vn 0.224438 0.754197 -0.617102
vn 0.096625 0.436622 -0.894441
vn 0.096625 0.436622 -0.894441
vn 0.096625 0.436622 -0.894441
vn 0.441241 0.894199 0.075594
vn 0.441241 0.894199 0.075594
vn 0.441241 0.894199 0.075594
vn -0.290867 0.948759 0.123501
vn -0.290867 0.948759 0.123501
vn -0.290867 0.948759 0.123501
vn 0.610031 0.721161 0.328313
vn 0.610031 0.721161 0.328313
vn 0.610031 0.721161 0.328313
vn 0.138138 0.987201 -0.079704
vn 0.138138 0.987201 -0.079704
vn 0.138138 0.987201 -0.079704
vn 0.129229 0.980661 -0.146980
vn 0.129229 0.980661 -0.146980
vn 0.129229 0.980661 -0.146980
vn -0.024060 0.972263 -0.232650
vn -0.024060 0.972263 -0.232650
vn -0.024060 0.972263 -0.232650
vn -0.229608 0.970993 0.066729
vn -0.229608 0.970993 0.066729
vn -0.229608 0.970993 0.066729
vn -0.166473 0.973664 0.155774
vn -0.166473 0.973664 0.155774
vn -0.166473 0.973664 0.155774
vn -0.322438 0.938692 -0.122030
vn -0.322438 0.938692 -0.122030
vn -0.322438 0.938692 -0.122030
vn 1.000000 -0.000000 -0.000000
vn 1.000000 -0.000000 -0.000000
vn 1.000000 -0.000000 -0.000000
vn 1.000000 -0.000000 -0.000000
vn 1.000000 -0.000000 -0.000000
vn 0.000000 -1.000000 -0.000000
vn 0.000000 -1.000000 -0.000000
vn 0.000000 -1.000000 -0.000000
vn 0.000000 -1.000000 -0.000000
vn -1.000000 0.000000 0.000000
vn -1.000000 0.000000 0.000000
vn -1.000000 0.000000 0.000000
vn -1.000000 0.000000 0.000000
vn -1.000000 0.000000 0.000000
vn -0.877822 0.478316 0.025350
vn -0.877822 0.478316 0.025350
vn -0.877822 0.478316 0.025350
vn 0.088596 0.981998 -0.166828
vn 0.088596 0.981998 -0.166828
vn 0.088596 0.981998 -0.166828
vn 0.154302 0.975722 -0.155427
vn 0.154302 0.975722 -0.155427
vn 0.154302 0.975722 -0.155427
vn 0.154302 0.975722 -0.155427
vn 0.146753 0.972622 0.180196
vn 0.146753 0.972622 0.180196
vn 0.146753 0.972622 0.180196
vn 0.071684 0.965710 0.249531
vn 0.071684 0.965710 0.249531
vn 0.071684 0.965710 0.249531
vn -0.040304 0.973607 0.224644
vn -0.040304 0.973607 0.224644
vn -0.040304 0.973607 0.224644
vn -0.210936 0.961267 -0.177401
vn -0.210936 0.961267 -0.177401
vn -0.210936 0.961267 -0.177401
vn -0.207401 0.955905 0.207917
vn -0.207401 0.955905 0.207917
vn -0.207401 0.955905 0.207917
vn -0.127073 0.989365 -0.070776
vn -0.127073 0.989365 -0.070776
vn -0.127073 0.989365 -0.070776
vn -0.127073 0.989365 -0.070776
vn 0.067270 0.934891 -0.348502
vn 0.067270 0.934891 -0.348502
vn 0.067270 0.934891 -0.348502
vn 0.045016 0.903647 -0.425907
vn 0.045016 0.903647 -0.425907
vn 0.045016 0.903647 -0.425907
vn 0.228424 0.857387 -0.461205
vn 0.228424 0.857387 -0.461205
vn 0.228424 0.857387 -0.461205
vn 0.091758 0.987714 -0.126496
vn 0.091758 0.987714 -0.126496
vn 0.091758 0.987714 -0.126496
vn -0.047515 0.686808 0.725284
vn -0.047515 0.686808 0.725284
vn -0.047515 0.686808 0.725284
vn -0.707678 0.702568 -0.074767
vn -0.707678 0.702568 -0.074767
vn -0.707678 0.702568 -0.074767
vn -0.158739 0.951908 0.262055
vn -0.158739 0.951908 0.262055
vn -0.158739 0.951908 0.262055
vn 0.248305 0.963071 -0.104106
vn 0.248305 0.963071 -0.104106
vn 0.248305 0.963071 -0.104106
vn 0.301481 0.948906 -0.093198
vn 0.301481 0.948906 -0.093198
vn 0.301481 0.948906 -0.093198
vn -0.275364 0.960420 -0.042043
vn -0.275364 0.960420 -0.042043
vn -0.275364 0.960420 -0.042043
vn -0.180546 0.943941 -0.276367
vn -0.180546 0.943941 -0.276367
vn -0.180546 0.943941 -0.276367
vn -0.038129 0.987673 -0.151814
vn -0.038129 0.987673 -0.151814
vn -0.038129 0.987673 -0.151814
vn 0.683023 0.603107 -0.411998
vn 0.683023 0.603107 -0.411998
vn 0.683023 0.603107 -0.411998
vn -0.101725 0.850083 0.516731
vn -0.101725 0.850083 0.516731
vn -0.101725 0.850083 0.516731
vn -0.128837 0.936807 0.325258
vn -0.128837 0.936807 0.325258
vn -0.128837 0.936807 0.325258
vn 0.703628 0.565887 -0.429743
vn 0.703628 0.565887 -0.429743
vn 0.703628 0.565887 -0.429743
vn -0.167922 0.912768 -0.372366
vn -0.167922 0.912768 -0.372366
vn -0.167922 0.912768 -0.372366
vn 0.000000 0.000000 -1.000000
vn 0.000000 0.000000 -1.000000
vn 0.000000 0.000000 -1.000000
vn 0.000000 0.000000 -1.000000
vn 0.000000 0.000000 -1.000000
vn 0.002525 0.486569 -0.873638
vn 0.002525 0.486569 -0.873638
vn 0.002525 0.486569 -0.873638
vn 0.114317 0.965013 -0.235971
vn 0.114317 0.965013 -0.235971
vn 0.114317 0.965013 -0.235971
vn 0.562235 0.826951 -0.006596
vn 0.562235 0.826951 -0.006596
vn 0.562235 0.826951 -0.006596
vn 0.019148 0.956611 0.290739
vn 0.019148 0.956611 0.290739
vn 0.019148 0.956611 0.290739
vn -0.058209 0.929923 0.363118
vn -0.058209 0.929923 0.363118
vn -0.058209 0.929923 0.363118
vn 0.020699 0.991413 -0.129123
vn 0.020699 0.991413 -0.129123
vn 0.020699 0.991413 -0.129123
vn 0.282167 0.947136 -0.152694
vn 0.282167 0.947136 -0.152694
vn 0.282167 0.947136 -0.152694
vn -0.191254 0.936100 -0.295192
vn -0.191254 0.936100 -0.295192
vn -0.191254 0.936100 -0.295192
vn -0.523180 0.843515 0.121511
vn -0.523180 0.843515 0.121511
vn -0.523180 0.843515 0.121511
vn -0.209068 0.931500 -0.297655
vn -0.209068 0.931500 -0.297655
vn -0.209068 0.931500 -0.297655
vn -0.059245 0.985949 0.156188
vn -0.059245 0.985949 0.156188
vn -0.059245 0.985949 0.156188
vn 0.126372 0.913920 -0.385721
vn 0.126372 0.913920 -0.385721
vn 0.126372 0.913920 -0.385721
vn -0.438912 0.824829 0.356389
vn -0.438912 0.824829 0.356389
vn -0.438912 0.824829 0.356389
vn -0.147672 0.850378 0.505024
vn -0.147672 0.850378 0.505024
vn -0.147672 0.850378 0.505024
s off
g Group1 Mesh1 Model polySurface1
usemtl Color_M03
f 1/17/1 2/19/2 3/15/3
usemtl Color_A01
f 42/30/4 4/34/5 5/37/6 6/24/7 7/28/8 8/4/9 9/9/10 10/3/11 11/20/12 2/19/13 1/17/14 43/33/15
usemtl Color_M03
f 42/30/16 46/32/17 4/34/18
f 42/30/19 44/31/20 46/32/21
f 42/30/22 43/33/23 44/31/24
f 43/33/25 45/39/26 44/31/27
f 12/36/28 45/39/29 43/33/30 1/17/31 13/11/32 14/51/33 15/52/34 16/42/35
f 44/31/36 47/35/37 12/36/38
f 45/39/39 47/35/40 44/31/41
f 47/35/42 45/39/43 12/36/44
f 48/40/45 44/31/46 12/36/47
f 44/31/48 48/40/49 46/32/50
f 17/38/51 46/32/52 48/40/53
f 5/37/54 46/32/55 17/38/56
f 4/34/57 46/32/58 5/37/59
f 5/37/60 17/38/61 6/24/62
f 6/24/63 17/38/64 18/45/65
f 18/45/66 17/38/67 19/46/68
f 48/40/69 49/44/70 17/38/71
f 48/40/72 50/43/73 49/44/74
f 20/41/75 50/43/76 48/40/77
f 20/41/78 16/42/79 18/45/80
f 12/36/81 16/42/82 20/41/83
f 48/40/84 12/36/85 20/41/86
f 6/24/87 18/45/88 16/42/89
f 6/24/90 16/42/91 15/47/92 21/48/93 22/22/94
f 15//95 14//96 23//97 21//98
f 13/11/99 10/3/100 24/5/101 23/49/102 14/50/103
f 25/10/104 10/3/105 13/11/106
f 25/10/107 26/12/108 10/3/109
f 26/12/110 25/10/111 27/13/112 28/14/113
f 1/17/114 27/13/115 25/10/116
f 1/17/117 3/15/118 27/13/119
f 27/13/120 3/15/121 28/14/122
f 3/15/123 29/18/124 28/14/125
f 3/15/126 26/12/127 29/18/128
f 26/12/129 3/15/130 30/16/131 10/3/132
f 3/15/133 2/19/134 30/16/135
f 2/19/136 11/20/137 30/16/138
f 10/3/139 30/16/140 11/20/141
f 26/12/142 28/14/143 29/18/144
f 13/11/145 1/17/146 25/10/147
f 10/3/148 31/2/149 24/5/150
f 32/1/151 31/2/152 10/3/153
f 32/1/154 8/4/155 31/2/156
f 33/7/157 8/4/158 32/1/159
f 8/4/160 33/7/161 34/8/162
f 32/1/163 34/8/164 33/7/165
f 35/6/166 34/8/167 32/1/168
f 35/6/169 9/9/170 34/8/171
f 35/6/172 10/3/173 9/9/174
f 35/6/175 32/1/176 10/3/177
f 8/4/178 34/8/179 9/9/180
f 8/4/181 24/5/182 31/2/183
f 23/49/184 24/5/185 8/4/186 22/22/187 21/48/188
f 36/21/189 22/22/190 8/4/191
f 37/23/192 22/22/193 36/21/194
f 37/23/195 6/24/196 22/22/197
f 38/26/198 6/24/199 37/23/200
f 38/26/201 39/27/202 6/24/203
f 39/27/204 38/26/205 36/21/206
f 38/26/207 40/25/208 36/21/209
f 38/26/210 37/23/211 40/25/212
f 37/23/213 36/21/214 40/25/215
f 36/21/216 41/29/217 39/27/218
f 36/21/219 8/4/220 41/29/221
f 8/4/222 39/27/223 41/29/224
f 8/4/225 7/28/226 39/27/227
f 39/27/228 7/28/229 6/24/230
