# This file uses centimeters as units for non-parametric coordinates.

mtllib amph_objects.mtl
g default
v -2.274700 3.880210 -3.314500
v -2.776510 4.338990 -2.845800
v -1.986120 4.213760 -2.654800
v -5.805870 2.312710 -3.091200
v -2.625090 2.260250 -4.231300
v -3.075390 2.720910 -3.779300
v -3.514670 2.274920 -3.912400
v -1.747340 2.592590 -2.289700
v -4.500930 2.402700 -2.833500
v -2.961780 3.312140 -2.685500
v -6.984090 1.747790 -1.930800
v -3.703290 2.277050 -2.155600
v 0.225130 1.665690 -0.376490
v -3.335560 1.991250 -5.802900
v -4.599410 2.254320 1.933070
v -0.864950 4.027740 1.255330
v -0.194630 3.747010 1.092660
v 0.742450 1.422590 0.732980
v -0.618340 1.634460 1.038690
v -1.720040 2.539020 1.336390
v -2.735010 1.964030 1.514210
v -1.071110 2.496680 3.264280
v -0.603820 3.712550 1.812120
v -0.247100 2.974230 1.596690
v 0.323490 1.670720 1.317760
v -0.487680 1.422590 7.630210
v -5.160230 1.422590 0.109100
v 3.652400 3.304910 1.177730
v 7.397800 2.195890 0.204410
v 4.994700 2.374150 0.239030
v 4.516300 2.285570 2.338790
v 2.701800 4.377580 0.106270
v 2.500300 4.436270 0.587650
v 4.082200 2.205210 4.243720
v 2.225100 2.579590 0.278940
v 2.265500 4.133020 0.137590
v 2.557700 2.512530 0.989100
v 3.133800 3.208010 2.100640
v 3.527700 2.317990 3.059580
v 2.449700 2.273410 5.870620
v -7.639430 2.748550 -5.912500
v -6.217440 2.369550 -3.547000
v -7.157420 2.392990 -5.572100
v -7.538760 2.552050 -5.010200
v -7.911630 2.068110 -6.028300
v -6.478000 2.109610 -6.573100
v -6.854950 2.680660 7.196030
v -4.444190 2.307510 7.246810
v -5.879750 3.543420 6.245500
v -5.548740 2.229510 5.660620
v -5.714250 2.886460 5.953060
v -6.551770 2.054290 3.564880
v -6.201850 2.455090 6.428330
v 4.658800 1.942590 -8.683001
v 1.970800 4.523920 -5.526400
v 1.862200 4.598970 -4.822600
v 3.780600 2.592590 -3.833000
v 1.231600 2.592590 -4.241600
v 1.442100 4.309800 -4.791600
v 2.320500 2.386070 -5.652700
v 1.675800 3.534630 -4.979200
v 2.004500 3.210870 -4.327900
v 7.792801 1.604400 -0.659130
v 0.391180 1.453680 -7.215500
v 6.472900 2.114390 7.262910
v 7.512600 1.704550 5.442660
v 6.737600 3.229540 6.777090
v 4.673000 2.088000 5.504340
v 5.592900 2.266150 -6.907200
v 6.995100 2.751850 -4.241600
v 7.103800 3.119040 -6.579400
v 7.827000 2.170510 -6.216000
v 7.263300 2.909820 -6.499300
v 8.549000 1.665980 -7.929501
v 6.710000 2.218330 -6.561600
vt 0.279783 0.011178
vt 0.106954 0.076195
vt 0.129947 0.018228
vt 0.016721 0.018643
vt 0.073309 0.088852
vt 0.097441 0.132818
vt 0.033822 0.186426
vt 0.926873 0.014443
vt 0.887101 0.237416
vt 0.847690 0.118055
vt 0.738717 0.078435
vt 0.014158 0.935631
vt 0.011851 0.802855
vt 0.070267 0.857818
vt 0.123917 0.624887
vt 0.130343 0.838133
vt 0.152685 0.939596
vt 0.905940 0.878204
vt 0.953986 0.984882
vt 0.863001 0.958964
vt 0.887891 0.867932
vt 0.804447 0.874508
vt 0.907852 0.702076
vt 0.990609 0.832161
vt 0.531968 0.532229
vt 0.642381 0.320246
vt 0.713022 0.293386
vt 0.740178 0.204239
vt 0.810548 0.179554
vt 0.705817 0.414713
vt 0.680114 0.443293
vt 0.923939 0.534040
vt 0.780025 0.417962
vt 0.838710 0.328112
vt 0.825726 0.534805
vt 0.726723 0.458532
vt 0.645544 0.029765
vt 0.589859 0.549285
vt 0.601969 0.761430
vt 0.488600 0.823877
vt 0.851918 0.740503
vt 0.759420 0.674580
vt 0.923780 0.549705
vt 0.717339 0.724185
vt 0.675968 0.728361
vt 0.747846 0.980433
vt 0.693830 0.766979
vt 0.645561 0.923321
vt 0.481032 0.791821
vt 0.362042 0.728751
vt 0.354736 0.696525
vt 0.472367 0.623296
vt 0.341262 0.938297
vt 0.344209 0.796283
vt 0.268397 0.811494
vt 0.172779 0.729321
vt 0.318550 0.702065
vt 0.156934 0.676991
vt 0.309595 0.606443
vt 0.112345 0.576273
vt 0.264710 0.525859
vt 0.475403 0.468014
vt 0.317775 0.476640
vt 0.249829 0.308700
vt 0.251996 0.222605
vt 0.344854 0.030417
vt 0.333550 0.231955
vt 0.362253 0.385146
vt 0.631174 0.183723
vt 0.206047 0.287702
vt 0.058248 0.212368
vt 0.155285 0.368084
vt 0.017685 0.628203
vt 0.052606 0.394777
vt 0.234489 0.433081
vn 0.255211 0.813322 -0.522852
vn 0.255211 0.813322 -0.522852
vn 0.255211 0.813322 -0.522852
vn -0.281045 0.517996 -0.807895
vn -0.281045 0.517996 -0.807895
vn -0.281045 0.517996 -0.807895
vn -0.281045 0.517996 -0.807895
vn -0.281045 0.517996 -0.807895
vn -0.281045 0.517996 -0.807895
vn -0.202714 0.186667 0.961282
vn -0.202714 0.186667 0.961282
vn -0.202714 0.186667 0.961282
vn -0.202714 0.186667 0.961282
vn -0.202714 0.186667 0.961282
vn -0.202714 0.186667 0.961282
vn 0.907925 0.039745 -0.417243
vn 0.907925 0.039745 -0.417243
vn 0.907925 0.039745 -0.417243
vn 0.907925 0.039745 -0.417243
vn -0.391651 0.749644 -0.533520
vn -0.391651 0.749644 -0.533520
vn -0.391651 0.749644 -0.533520
vn -0.014077 0.463595 0.885935
vn -0.014077 0.463595 0.885935
vn -0.014077 0.463595 0.885935
vn -0.259148 0.580712 0.771762
vn -0.259148 0.580712 0.771762
vn -0.259148 0.580712 0.771762
vn 0.540837 0.826293 -0.157275
vn 0.540837 0.826293 -0.157275
vn 0.540837 0.826293 -0.157275
vn 0.472929 0.807715 -0.352043
vn 0.472929 0.807715 -0.352043
vn 0.472929 0.807715 -0.352043
vn -0.675787 0.716847 -0.171587
vn -0.675787 0.716847 -0.171587
vn -0.675787 0.716847 -0.171587
vn -0.208790 0.066803 -0.975676
vn -0.208790 0.066803 -0.975676
vn -0.208790 0.066803 -0.975676
vn -0.208790 0.066803 -0.975676
vn -0.208790 0.066803 -0.975676
vn -0.208790 0.066803 -0.975676
vn -0.208790 0.066803 -0.975676
vn -0.267312 0.779435 0.566592
vn -0.267312 0.779435 0.566592
vn -0.267312 0.779435 0.566592
vn -0.267312 0.779435 0.566592
vn 0.833744 0.260814 0.486669
vn 0.833744 0.260814 0.486669
vn 0.833744 0.260814 0.486669
vn 0.833744 0.260814 0.486669
vn 0.833744 0.260814 0.486669
vn 0.833744 0.260814 0.486669
vn 0.428270 0.857649 0.284645
vn 0.428270 0.857649 0.284645
vn 0.428270 0.857649 0.284645
vn -0.062172 0.967208 0.246258
vn -0.062172 0.967208 0.246258
vn -0.062172 0.967208 0.246258
vn 0.918098 0.373493 0.132660
vn 0.918098 0.373493 0.132660
vn 0.918098 0.373493 0.132660
vn 0.155240 0.474268 -0.866586
vn 0.155240 0.474268 -0.866586
vn 0.155240 0.474268 -0.866586
vn -0.405127 0.832200 0.378570
vn -0.405127 0.832200 0.378570
vn -0.405127 0.832200 0.378570
vn 0.045314 0.741017 -0.669956
vn 0.045314 0.741017 -0.669956
vn 0.045314 0.741017 -0.669956
vn 0.359095 0.817396 0.450461
vn 0.359095 0.817396 0.450461
vn 0.359095 0.817396 0.450461
vn 0.641654 0.746131 0.177677
vn 0.641654 0.746131 0.177677
vn 0.641654 0.746131 0.177677
vn 0.641654 0.746131 0.177677
vn 0.641654 0.746131 0.177677
vn 0.641654 0.746131 0.177677
vn -0.021025 -0.090049 -0.995715
vn -0.021025 -0.090049 -0.995715
vn -0.021025 -0.090049 -0.995715
vn -0.021025 -0.090049 -0.995715
vn -0.901535 0.062413 0.428182
vn -0.901535 0.062413 0.428182
vn -0.901535 0.062413 0.428182
vn -0.901535 0.062413 0.428182
vn -0.901535 0.062413 0.428182
vn -0.901535 0.062413 0.428182
vn -0.901535 0.062413 0.428182
vn -0.780422 0.625111 0.013349
vn -0.780422 0.625111 0.013349
vn -0.780422 0.625111 0.013349
vn 0.722468 0.629007 0.287039
vn 0.722468 0.629007 0.287039
vn 0.722468 0.629007 0.287039
vn -0.482523 0.822084 -0.302241
vn -0.482523 0.822084 -0.302241
vn -0.482523 0.822084 -0.302241
vn 0.697610 0.642849 -0.316362
vn 0.697610 0.642849 -0.316362
vn 0.697610 0.642849 -0.316362
vn -0.113850 0.968025 0.223531
vn -0.113850 0.968025 0.223531
vn -0.113850 0.968025 0.223531
vn -0.923826 0.339432 0.177007
vn -0.923826 0.339432 0.177007
vn -0.923826 0.339432 0.177007
vn -0.347222 0.290721 -0.891582
vn -0.347222 0.290721 -0.891582
vn -0.347222 0.290721 -0.891582
vn 0.531242 0.838203 0.123276
vn 0.531242 0.838203 0.123276
vn 0.531242 0.838203 0.123276
vn 0.091479 0.688859 0.719100
vn 0.091479 0.688859 0.719100
vn 0.091479 0.688859 0.719100
vn 0.734207 0.421788 -0.532011
vn 0.734207 0.421788 -0.532011
vn 0.734207 0.421788 -0.532011
vn 0.734207 0.421788 -0.532011
vn 0.815795 0.393987 -0.423382
vn 0.815795 0.393987 -0.423382
vn 0.815795 0.393987 -0.423382
vn -0.673879 0.738543 -0.021022
vn -0.673879 0.738543 -0.021022
vn -0.673879 0.738543 -0.021022
vn -0.741301 0.108114 -0.662407
vn -0.741301 0.108114 -0.662407
vn -0.741301 0.108114 -0.662407
vn -0.741301 0.108114 -0.662407
vn 0.713544 0.699713 0.035436
vn 0.713544 0.699713 0.035436
vn 0.713544 0.699713 0.035436
vn 0.713544 0.699713 0.035436
vn -0.794793 -0.094601 -0.599462
vn -0.794793 -0.094601 -0.599462
vn -0.794793 -0.094601 -0.599462
vn -0.794793 -0.094601 -0.599462
vn -0.794793 -0.094601 -0.599462
vn -0.794793 -0.094601 -0.599462
vn -0.150055 0.318215 0.936068
vn -0.150055 0.318215 0.936068
vn -0.150055 0.318215 0.936068
vn -0.150055 0.318215 0.936068
vn -0.150055 0.318215 0.936068
vn -0.567026 0.805256 -0.173331
vn -0.567026 0.805256 -0.173331
vn -0.567026 0.805256 -0.173331
vn -0.341494 0.534740 0.772939
vn -0.341494 0.534740 0.772939
vn -0.341494 0.534740 0.772939
vn 0.367974 0.912005 -0.181223
vn 0.367974 0.912005 -0.181223
vn 0.367974 0.912005 -0.181223
vn 0.305206 0.603347 -0.736764
vn 0.305206 0.603347 -0.736764
vn 0.305206 0.603347 -0.736764
vn -0.880377 0.469212 0.069109
vn -0.880377 0.469212 0.069109
vn -0.880377 0.469212 0.069109
vn 0.869170 0.009116 0.494430
vn 0.869170 0.009116 0.494430
vn 0.869170 0.009116 0.494430
vn 0.075692 0.678147 -0.731018
vn 0.075692 0.678147 -0.731018
vn 0.075692 0.678147 -0.731018
vn -0.634037 0.430374 0.642476
vn -0.634037 0.430374 0.642476
vn -0.634037 0.430374 0.642476
vn -0.506668 0.855001 0.110732
vn -0.506668 0.855001 0.110732
vn -0.506668 0.855001 0.110732
vn 0.762374 0.632930 0.134857
vn 0.762374 0.632930 0.134857
vn 0.762374 0.632930 0.134857
vn 0.762374 0.632930 0.134857
vn 0.762374 0.632930 0.134857
vn 0.762374 0.632930 0.134857
vn 0.762374 0.632930 0.134857
vn -0.451334 0.431600 -0.781037
vn -0.451334 0.431600 -0.781037
vn -0.451334 0.431600 -0.781037
vn 0.286830 -0.144144 -0.947075
vn 0.286830 -0.144144 -0.947075
vn 0.286830 -0.144144 -0.947075
vn 0.286830 -0.144144 -0.947075
s off
g Mesh1 Model initialShadingGroup polySurface1
f 1/50/1 2/57/2 3/51/3
f 4/56/4 2/57/5 1/50/6 5/49/7 6/54/8 7/55/9
f 8/52/10 3/51/11 2/57/12 4/56/13 9/58/14 10/59/15
f 5/49/16 1/50/17 3/51/18 8/52/19
f 11/60/20 10/59/21 9/58/22
f 10/59/23 11/60/24 12/61/25
f 13/62/26 10/59/27 12/61/28
f 10/59/29 13/62/30 8/52/31
f 14/53/32 6/54/33 5/49/34
f 6/54/35 14/53/36 7/55/37
g Mesh2 Model initialShadingGroup polySurface1
f 15/71/38 16/70/39 17/64/40 18/63/41 19/75/42 20/72/43 21/74/44
f 22/66/45 23/65/46 16/70/47 15/71/48
f 18/63/49 17/64/50 23/65/51 22/66/52 24/67/53 25/68/54
f 23/65/55 17/64/56 16/70/57
f 26/69/58 24/67/59 22/66/60
f 24/67/61 26/69/62 25/68/63
f 27/73/64 20/72/65 19/75/66
f 20/72/67 27/73/68 21/74/69
g Mesh3 Model initialShadingGroup polySurface1
f 28/33/70 29/32/71 30/35/72
f 29/32/73 28/33/74 31/34/75
f 30/35/76 32/36/77 33/30/78 34/29/79 31/34/80 28/33/81
f 35/25/82 36/31/83 32/36/84 30/35/85
f 35/25/86 37/26/87 38/27/88 39/28/89 34/29/90 33/30/91 36/31/92
f 40/37/93 38/27/94 37/26/95
f 40/37/96 39/28/97 38/27/98
f 36/31/99 33/30/100 32/36/101
g Mesh4 Model initialShadingGroup polySurface1
f 41/14/102 42/15/103 43/16/104
f 42/15/105 41/14/106 44/13/107
f 45/12/108 44/13/109 41/14/110
f 46/17/111 45/12/112 41/14/113
f 43/16/114 46/17/115 41/14/116
g Mesh5 Model initialShadingGroup polySurface1
f 47/7/117 48/4/118 49/5/119
f 48/4/120 50/3/121 51/2/122 49/5/123
f 52/1/124 51/2/125 50/3/126
f 51/2/127 52/1/128 53/6/129
f 49/5/130 51/2/131 53/6/132 47/7/133
g Mesh6 Model initialShadingGroup polySurface1
f 54/46/134 55/47/135 56/44/136 57/41/137
f 58/38/138 59/45/139 55/47/140 54/46/141 60/48/142 61/39/143
f 57/41/144 56/44/145 59/45/146 58/38/147 62/42/148
f 56/44/149 55/47/150 59/45/151
f 63/43/152 62/42/153 58/38/154
f 57/41/155 62/42/156 63/43/157
f 60/48/158 64/40/159 61/39/160
f 58/38/161 61/39/162 64/40/163
g Mesh7 Model initialShadingGroup polySurface1
f 65/8/164 66/9/165 67/10/166
f 67/10/167 66/9/168 68/11/169
f 68/11/170 65/8/171 67/10/172
g Mesh8 Model initialShadingGroup polySurface1
f 69/22/173 70/23/174 71/21/175
f 70/23/176 72/24/177 73/18/178 71/21/179
f 74/19/180 73/18/181 72/24/182
f 73/18/183 74/19/184 75/20/185
f 71/21/186 73/18/187 75/20/188 69/22/189
